<svg width="30" height="23" viewBox="0 0 30 23" fill="none" xmlns="http://www.w3.org/2000/svg">
<path d="M15 0C14.4378 -7.33084e-09 13.881 0.0968995 13.3616 0.285166C12.8421 0.473433 12.3701 0.749379 11.9726 1.09725C11.575 1.44512 11.2596 1.85811 11.0445 2.31262C10.8293 2.76714 10.7186 3.25429 10.7186 3.74625C10.7186 4.23821 10.8293 4.72536 11.0445 5.17988C11.2596 5.63439 11.575 6.04738 11.9726 6.39525C12.3701 6.74312 12.8421 7.01907 13.3616 7.20733C13.881 7.3956 14.4378 7.4925 15 7.4925C16.1355 7.4925 17.2245 7.09781 18.0274 6.39525C18.8303 5.69269 19.2814 4.73982 19.2814 3.74625C19.2814 2.75268 18.8303 1.79981 18.0274 1.09725C17.2245 0.394693 16.1355 0 15 0ZM24.6429 1.87125C23.7904 1.87125 22.9728 2.16757 22.37 2.69501C21.7672 3.22246 21.4286 3.93783 21.4286 4.68375C21.4286 5.42967 21.7672 6.14504 22.37 6.67249C22.9728 7.19993 23.7904 7.49625 24.6429 7.49625C25.4953 7.49625 26.3129 7.19993 26.9157 6.67249C27.5185 6.14504 27.8571 5.42967 27.8571 4.68375C27.8571 3.93783 27.5185 3.22246 26.9157 2.69501C26.3129 2.16757 25.4953 1.87125 24.6429 1.87125ZM5.35714 1.87125C4.50466 1.87125 3.6871 2.16757 3.0843 2.69501C2.4815 3.22246 2.14286 3.93783 2.14286 4.68375C2.14286 5.42967 2.4815 6.14504 3.0843 6.67249C3.6871 7.19993 4.50466 7.49625 5.35714 7.49625C6.20962 7.49625 7.02719 7.19993 7.62999 6.67249C8.23278 6.14504 8.57143 5.42967 8.57143 4.68375C8.57143 3.93783 8.23278 3.22246 7.62999 2.69501C7.02719 2.16757 6.20962 1.87125 5.35714 1.87125ZM8.57143 11.2331C8.57539 10.7381 8.8029 10.2646 9.20434 9.91578C9.60577 9.56698 10.1486 9.37124 10.7143 9.37125H19.2857C19.854 9.37125 20.3991 9.56879 20.8009 9.92042C21.2028 10.2721 21.4286 10.749 21.4286 11.2462V16.8713C21.4284 17.4613 21.3229 18.0478 21.1157 18.6094C20.6412 19.8819 19.6638 20.9648 18.359 21.6636C17.0541 22.3623 15.5073 22.6311 13.9963 22.4218C12.4854 22.2124 11.1092 21.5386 10.1149 20.5213C9.12061 19.504 8.57336 18.2098 8.57143 16.8713V11.2331ZM6.42857 11.2462C6.42857 10.5619 6.63643 9.9225 7.00286 9.37125H2.14286C1.57454 9.37125 1.02949 9.56879 0.627629 9.92042C0.225765 10.2721 2.966e-07 10.749 2.966e-07 11.2462V15.9337C-0.000291531 16.7012 0.21477 17.457 0.626299 18.1347C1.03783 18.8124 1.63324 19.3914 2.36023 19.8207C3.08723 20.25 3.92358 20.5166 4.79584 20.597C5.66809 20.6774 6.54957 20.5692 7.36286 20.2819C6.7461 19.2254 6.42583 18.0557 6.42857 16.8694V11.2462ZM23.5714 11.2462V16.8713C23.5714 18.0994 23.235 19.2581 22.6371 20.2819C23.4504 20.5692 24.3319 20.6774 25.2042 20.597C26.0764 20.5166 26.9128 20.25 27.6398 19.8207C28.3668 19.3914 28.9622 18.8124 29.3737 18.1347C29.7852 17.457 30.0003 16.7012 30 15.9337V11.2462C30 10.749 29.7742 10.2721 29.3724 9.92042C28.9705 9.56879 28.4255 9.37125 27.8571 9.37125H22.9971C23.3614 9.9225 23.5714 10.5619 23.5714 11.2462Z" fill="#F2CA9A"/>
</svg>
