<svg width="20" height="18" viewBox="0 0 20 18" fill="none" xmlns="http://www.w3.org/2000/svg">
<path d="M10 0.752686C9.63923 0.752686 9.28198 0.823745 8.94867 0.961807C8.61536 1.09987 8.31251 1.30223 8.0574 1.55734C7.8023 1.81244 7.59993 2.1153 7.46187 2.44861C7.32381 2.78192 7.25275 3.13916 7.25275 3.49994C7.25275 3.86071 7.32381 4.21795 7.46187 4.55126C7.59993 4.88457 7.8023 5.18743 8.0574 5.44253C8.31251 5.69764 8.61536 5.9 8.94867 6.03806C9.28198 6.17613 9.63923 6.24719 10 6.24719C10.7286 6.24719 11.4274 5.95774 11.9426 5.44253C12.4578 4.92733 12.7473 4.22855 12.7473 3.49994C12.7473 2.77132 12.4578 2.07255 11.9426 1.55734C11.4274 1.04213 10.7286 0.752686 10 0.752686ZM16.1875 2.12494C15.6405 2.12494 15.1159 2.34223 14.7291 2.72903C14.3423 3.11582 14.125 3.64043 14.125 4.18744C14.125 4.73444 14.3423 5.25905 14.7291 5.64584C15.1159 6.03264 15.6405 6.24994 16.1875 6.24994C16.7345 6.24994 17.2591 6.03264 17.6459 5.64584C18.0327 5.25905 18.25 4.73444 18.25 4.18744C18.25 3.64043 18.0327 3.11582 17.6459 2.72903C17.2591 2.34223 16.7345 2.12494 16.1875 2.12494ZM3.8125 2.12494C3.26549 2.12494 2.74089 2.34223 2.35409 2.72903C1.9673 3.11582 1.75 3.64043 1.75 4.18744C1.75 4.73444 1.9673 5.25905 2.35409 5.64584C2.74089 6.03264 3.26549 6.24994 3.8125 6.24994C4.35951 6.24994 4.88411 6.03264 5.27091 5.64584C5.6577 5.25905 5.875 4.73444 5.875 4.18744C5.875 3.64043 5.6577 3.11582 5.27091 2.72903C4.88411 2.34223 4.35951 2.12494 3.8125 2.12494ZM5.875 8.99031C5.87754 8.62731 6.02353 8.28004 6.28112 8.02425C6.5387 7.76847 6.88699 7.62493 7.25 7.62494H12.75C13.1147 7.62494 13.4644 7.7698 13.7223 8.02766C13.9801 8.28553 14.125 8.63526 14.125 8.99994V13.1249C14.1249 13.5577 14.0572 13.9877 13.9242 14.3996C13.6198 15.3328 12.9926 16.1269 12.1553 16.6393C11.3181 17.1517 10.3255 17.3488 9.35599 17.1953C8.38644 17.0418 7.50339 16.5476 6.86539 15.8016C6.22739 15.0556 5.87624 14.1066 5.875 13.1249V8.99031ZM4.5 8.99994C4.5 8.49806 4.63338 8.02919 4.8685 7.62494H1.75C1.38533 7.62494 1.03559 7.7698 0.777728 8.02766C0.519866 8.28553 0.375 8.63526 0.375 8.99994V12.4374C0.374813 13.0002 0.512811 13.5545 0.776875 14.0515C1.04094 14.5485 1.42299 14.973 1.88948 15.2879C2.35597 15.6027 2.89263 15.7982 3.45233 15.8572C4.01202 15.9161 4.57764 15.8368 5.0995 15.6261C4.70375 14.8513 4.49824 13.9935 4.5 13.1236V8.99994ZM15.5 8.99994V13.1249C15.5 14.0256 15.2841 14.8753 14.9005 15.6261C15.4224 15.8368 15.988 15.9161 16.5477 15.8572C17.1074 15.7982 17.644 15.6027 18.1105 15.2879C18.577 14.973 18.9591 14.5485 19.2231 14.0515C19.4872 13.5545 19.6252 13.0002 19.625 12.4374V8.99994C19.625 8.63526 19.4801 8.28553 19.2223 8.02766C18.9644 7.7698 18.6147 7.62494 18.25 7.62494H15.1315C15.3653 8.02919 15.5 8.49806 15.5 8.99994Z" fill="#F2CA9A"/>
</svg>
