<svg width="30" height="30" viewBox="0 0 30 30" fill="none" xmlns="http://www.w3.org/2000/svg">
<path d="M15 4C14.4378 4 13.881 4.0969 13.3616 4.28517C12.8421 4.47343 12.3701 4.74938 11.9726 5.09725C11.575 5.44512 11.2596 5.85811 11.0445 6.31262C10.8293 6.76714 10.7186 7.25429 10.7186 7.74625C10.7186 8.23821 10.8293 8.72536 11.0445 9.17988C11.2596 9.63439 11.575 10.0474 11.9726 10.3952C12.3701 10.7431 12.8421 11.0191 13.3616 11.2073C13.881 11.3956 14.4378 11.4925 15 11.4925C16.1355 11.4925 17.2245 11.0978 18.0274 10.3952C18.8303 9.69269 19.2814 8.73982 19.2814 7.74625C19.2814 6.75268 18.8303 5.79981 18.0274 5.09725C17.2245 4.39469 16.1355 4 15 4V4ZM24.6429 5.87125C23.7904 5.87125 22.9728 6.16757 22.37 6.69501C21.7672 7.22246 21.4286 7.93783 21.4286 8.68375C21.4286 9.42967 21.7672 10.145 22.37 10.6725C22.9728 11.1999 23.7904 11.4962 24.6429 11.4962C25.4953 11.4962 26.3129 11.1999 26.9157 10.6725C27.5185 10.145 27.8571 9.42967 27.8571 8.68375C27.8571 7.93783 27.5185 7.22246 26.9157 6.69501C26.3129 6.16757 25.4953 5.87125 24.6429 5.87125V5.87125ZM5.35714 5.87125C4.50466 5.87125 3.6871 6.16757 3.0843 6.69501C2.4815 7.22246 2.14286 7.93783 2.14286 8.68375C2.14286 9.42967 2.4815 10.145 3.0843 10.6725C3.6871 11.1999 4.50466 11.4962 5.35714 11.4962C6.20962 11.4962 7.02719 11.1999 7.62999 10.6725C8.23278 10.145 8.57143 9.42967 8.57143 8.68375C8.57143 7.93783 8.23278 7.22246 7.62999 6.69501C7.02719 6.16757 6.20962 5.87125 5.35714 5.87125ZM8.57143 15.2331C8.57539 14.7381 8.8029 14.2646 9.20434 13.9158C9.60577 13.567 10.1486 13.3712 10.7143 13.3712H19.2857C19.854 13.3712 20.3991 13.5688 20.8009 13.9204C21.2028 14.2721 21.4286 14.749 21.4286 15.2462V20.8712C21.4284 21.4613 21.3229 22.0478 21.1157 22.6094C20.6412 23.8819 19.6638 24.9648 18.359 25.6636C17.0541 26.3623 15.5073 26.6311 13.9963 26.4218C12.4854 26.2124 11.1092 25.5386 10.1149 24.5213C9.1206 23.504 8.57336 22.2098 8.57143 20.8712V15.2331ZM6.42857 15.2462C6.42857 14.5619 6.63643 13.9225 7.00286 13.3712H2.14286C1.57454 13.3712 1.02949 13.5688 0.627629 13.9204C0.225765 14.2721 2.966e-07 14.749 2.966e-07 15.2462V19.9337C-0.000291531 20.7012 0.21477 21.457 0.626299 22.1347C1.03783 22.8124 1.63324 23.3914 2.36023 23.8207C3.08723 24.25 3.92358 24.5166 4.79584 24.597C5.66809 24.6774 6.54957 24.5692 7.36286 24.2819C6.7461 23.2254 6.42583 22.0557 6.42857 20.8694V15.2462ZM23.5714 15.2462V20.8712C23.5714 22.0994 23.235 23.2581 22.6371 24.2819C23.4504 24.5692 24.3319 24.6774 25.2042 24.597C26.0764 24.5166 26.9128 24.25 27.6398 23.8207C28.3668 23.3914 28.9622 22.8124 29.3737 22.1347C29.7852 21.457 30.0003 20.7012 30 19.9337V15.2462C30 14.749 29.7742 14.2721 29.3724 13.9204C28.9705 13.5688 28.4255 13.3712 27.8571 13.3712H22.9971C23.3614 13.9225 23.5714 14.5619 23.5714 15.2462Z" fill="#FFB74A"/>
</svg>
