<svg width="30" height="24" viewBox="0 0 30 24" fill="none" xmlns="http://www.w3.org/2000/svg">
<path d="M9.10714 11.7857C10.67 11.7857 12.1689 11.1649 13.274 10.0597C14.3791 8.95461 15 7.45574 15 5.89286C15 4.32997 14.3791 2.8311 13.274 1.72598C12.1689 0.620853 10.67 0 9.10714 0C7.54426 0 6.04539 0.620853 4.94026 1.72598C3.83514 2.8311 3.21429 4.32997 3.21429 5.89286C3.21429 7.45574 3.83514 8.95461 4.94026 10.0597C6.04539 11.1649 7.54426 11.7857 9.10714 11.7857ZM22.5 11.7857C23.6366 11.7857 24.7267 11.3342 25.5305 10.5305C26.3342 9.72673 26.7857 8.63664 26.7857 7.5C26.7857 6.36336 26.3342 5.27327 25.5305 4.46954C24.7267 3.66581 23.6366 3.21429 22.5 3.21429C21.3634 3.21429 20.2733 3.66581 19.4695 4.46954C18.6658 5.27327 18.2143 6.36336 18.2143 7.5C18.2143 8.63664 18.6658 9.72673 19.4695 10.5305C20.2733 11.3342 21.3634 11.7857 22.5 11.7857ZM3.21429 13.9286C2.3618 13.9286 1.54424 14.2672 0.941443 14.87C0.338647 15.4728 0 16.2904 0 17.1429V17.3036C0 17.3036 0 23.5714 9.10714 23.5714C18.2143 23.5714 18.2143 17.3036 18.2143 17.3036V17.1429C18.2143 16.2904 17.8756 15.4728 17.2728 14.87C16.67 14.2672 15.8525 13.9286 15 13.9286H3.21429ZM22.5 21.4286C20.94 21.4286 19.7057 21.2164 18.7275 20.8789C19.1904 20.1289 19.4561 19.4057 19.6061 18.8218C19.7154 18.4022 19.7847 17.9731 19.8129 17.5404C19.815 17.4975 19.8171 17.4589 19.8171 17.4257L19.8182 17.3807V17.1429C19.8201 15.9567 19.3831 14.8118 18.5914 13.9286H27.4211C27.7597 13.9284 28.095 13.995 28.4079 14.1245C28.7208 14.254 29.0051 14.4438 29.2446 14.6832C29.4841 14.9226 29.6741 15.2068 29.8037 15.5197C29.9333 15.8325 30 16.1678 30 16.5064C30 16.5064 30 21.4286 22.5 21.4286Z" fill="#F2CA9A"/>
</svg>
