<svg width="30" height="30" viewBox="0 0 30 30" fill="none" xmlns="http://www.w3.org/2000/svg">
<g clip-path="url(#clip0_105_257)">
<path d="M2.5 7.37723C2.5 6.41523 2.88215 5.49263 3.56239 4.81239C4.24263 4.13215 5.16523 3.75 6.12723 3.75H21.1942C22.1562 3.75 23.0788 4.13215 23.759 4.81239C24.4393 5.49263 24.8214 6.41523 24.8214 7.37723V20.9141C24.6875 21.0033 24.5592 21.1083 24.4408 21.2266L23.1473 22.5201V7.37723C23.1473 6.85923 22.9415 6.36245 22.5753 5.99616C22.209 5.62988 21.7122 5.42411 21.1942 5.42411H6.12723C5.60923 5.42411 5.11245 5.62988 4.74616 5.99616C4.37988 6.36245 4.17411 6.85923 4.17411 7.37723V26.9085C4.17411 27.9866 5.04911 28.8616 6.12723 28.8616H15.1317L16.8058 30.5357H6.12723C5.16523 30.5357 4.24263 30.1536 3.56239 29.4733C2.88215 28.7931 2.5 27.8705 2.5 26.9085V7.37723ZM9.75446 11.2835C9.75446 11.6535 9.60748 12.0083 9.34585 12.27C9.08422 12.5316 8.72938 12.6786 8.35938 12.6786C7.98937 12.6786 7.63453 12.5316 7.3729 12.27C7.11127 12.0083 6.96429 11.6535 6.96429 11.2835C6.96429 10.9135 7.11127 10.5586 7.3729 10.297C7.63453 10.0354 7.98937 9.88839 8.35938 9.88839C8.72938 9.88839 9.08422 10.0354 9.34585 10.297C9.60748 10.5586 9.75446 10.9135 9.75446 11.2835ZM8.35938 18.5379C8.72938 18.5379 9.08422 18.391 9.34585 18.1293C9.60748 17.8677 9.75446 17.5129 9.75446 17.1429C9.75446 16.7729 9.60748 16.418 9.34585 16.1564C9.08422 15.8948 8.72938 15.7478 8.35938 15.7478C7.98937 15.7478 7.63453 15.8948 7.3729 16.1564C7.11127 16.418 6.96429 16.7729 6.96429 17.1429C6.96429 17.5129 7.11127 17.8677 7.3729 18.1293C7.63453 18.391 7.98937 18.5379 8.35938 18.5379V18.5379ZM8.35938 24.3973C8.72938 24.3973 9.08422 24.2503 9.34585 23.9887C9.60748 23.7271 9.75446 23.3722 9.75446 23.0022C9.75446 22.6322 9.60748 22.2774 9.34585 22.0158C9.08422 21.7541 8.72938 21.6071 8.35938 21.6071C7.98937 21.6071 7.63453 21.7541 7.3729 22.0158C7.11127 22.2774 6.96429 22.6322 6.96429 23.0022C6.96429 23.3722 7.11127 23.7271 7.3729 23.9887C7.63453 24.2503 7.98937 24.3973 8.35938 24.3973V24.3973ZM12.2656 10.4464C12.0436 10.4464 11.8307 10.5346 11.6737 10.6916C11.5168 10.8486 11.4286 11.0615 11.4286 11.2835C11.4286 11.5055 11.5168 11.7184 11.6737 11.8754C11.8307 12.0323 12.0436 12.1205 12.2656 12.1205H19.5201C19.7421 12.1205 19.955 12.0323 20.112 11.8754C20.269 11.7184 20.3571 11.5055 20.3571 11.2835C20.3571 11.0615 20.269 10.8486 20.112 10.6916C19.955 10.5346 19.7421 10.4464 19.5201 10.4464H12.2656ZM11.4286 17.1429C11.4286 16.9209 11.5168 16.7079 11.6737 16.551C11.8307 16.394 12.0436 16.3058 12.2656 16.3058H19.5201C19.7421 16.3058 19.955 16.394 20.112 16.551C20.269 16.7079 20.3571 16.9209 20.3571 17.1429C20.3571 17.3649 20.269 17.5778 20.112 17.7347C19.955 17.8917 19.7421 17.9799 19.5201 17.9799H12.2656C12.0436 17.9799 11.8307 17.8917 11.6737 17.7347C11.5168 17.5778 11.4286 17.3649 11.4286 17.1429V17.1429ZM12.2656 22.1652C12.0436 22.1652 11.8307 22.2534 11.6737 22.4103C11.5168 22.5673 11.4286 22.7802 11.4286 23.0022C11.4286 23.2242 11.5168 23.4371 11.6737 23.5941C11.8307 23.7511 12.0436 23.8393 12.2656 23.8393H19.5201C19.7421 23.8393 19.955 23.7511 20.112 23.5941C20.269 23.4371 20.3571 23.2242 20.3571 23.0022C20.3571 22.7802 20.269 22.5673 20.112 22.4103C19.955 22.2534 19.7421 22.1652 19.5201 22.1652H12.2656ZM26.808 23.5938L20.1116 30.2902C19.9547 30.4469 19.7419 30.535 19.5201 30.535C19.2983 30.535 19.0855 30.4469 18.9286 30.2902L15.5826 26.9442C15.4347 26.7855 15.3542 26.5756 15.3581 26.3588C15.3619 26.1419 15.4497 25.935 15.6031 25.7817C15.7565 25.6283 15.9634 25.5405 16.1802 25.5366C16.3971 25.5328 16.6069 25.6133 16.7656 25.7612L19.5201 28.5145L25.625 22.4096C25.7023 22.3297 25.7946 22.266 25.8968 22.2221C25.9989 22.1783 26.1088 22.1553 26.2199 22.1544C26.3311 22.1535 26.4413 22.1747 26.5441 22.2168C26.647 22.259 26.7404 22.3212 26.819 22.3998C26.8975 22.4784 26.9596 22.5719 27.0017 22.6748C27.0437 22.7777 27.0648 22.8879 27.0638 22.9991C27.0628 23.1102 27.0397 23.22 26.9957 23.3221C26.9518 23.4242 26.888 23.5166 26.808 23.5938V23.5938Z" fill="#FFB74A"/>
</g>
<defs>
<clipPath id="clip0_105_257">
<rect width="30" height="30" fill="white"/>
</clipPath>
</defs>
</svg>
