<svg width="26" height="27" viewBox="0 0 26 27" fill="none" xmlns="http://www.w3.org/2000/svg">
<path d="M0.5 4.37723C0.5 3.41523 0.882154 2.49263 1.56239 1.81239C2.24263 1.13215 3.16523 0.75 4.12723 0.75H19.1942C20.1562 0.75 21.0788 1.13215 21.759 1.81239C22.4393 2.49263 22.8214 3.41523 22.8214 4.37723V17.9141C22.6875 18.0033 22.5592 18.1083 22.4408 18.2266L21.1473 19.5201V4.37723C21.1473 3.85923 20.9415 3.36245 20.5753 2.99616C20.209 2.62988 19.7122 2.42411 19.1942 2.42411H4.12723C3.60923 2.42411 3.11245 2.62988 2.74616 2.99616C2.37988 3.36245 2.17411 3.85923 2.17411 4.37723V23.9085C2.17411 24.9866 3.04911 25.8616 4.12723 25.8616H13.1317L14.8058 27.5357H4.12723C3.16523 27.5357 2.24263 27.1536 1.56239 26.4733C0.882154 25.7931 0.5 24.8705 0.5 23.9085V4.37723ZM7.75446 8.28348C7.75446 8.65348 7.60748 9.00833 7.34585 9.26996C7.08422 9.53159 6.72938 9.67857 6.35938 9.67857C5.98937 9.67857 5.63453 9.53159 5.3729 9.26996C5.11127 9.00833 4.96429 8.65348 4.96429 8.28348C4.96429 7.91348 5.11127 7.55864 5.3729 7.29701C5.63453 7.03538 5.98937 6.88839 6.35938 6.88839C6.72938 6.88839 7.08422 7.03538 7.34585 7.29701C7.60748 7.55864 7.75446 7.91348 7.75446 8.28348ZM6.35938 15.5379C6.72938 15.5379 7.08422 15.391 7.34585 15.1293C7.60748 14.8677 7.75446 14.5129 7.75446 14.1429C7.75446 13.7729 7.60748 13.418 7.34585 13.1564C7.08422 12.8948 6.72938 12.7478 6.35938 12.7478C5.98937 12.7478 5.63453 12.8948 5.3729 13.1564C5.11127 13.418 4.96429 13.7729 4.96429 14.1429C4.96429 14.5129 5.11127 14.8677 5.3729 15.1293C5.63453 15.391 5.98937 15.5379 6.35938 15.5379ZM6.35938 21.3973C6.72938 21.3973 7.08422 21.2503 7.34585 20.9887C7.60748 20.7271 7.75446 20.3722 7.75446 20.0022C7.75446 19.6322 7.60748 19.2774 7.34585 19.0158C7.08422 18.7541 6.72938 18.6071 6.35938 18.6071C5.98937 18.6071 5.63453 18.7541 5.3729 19.0158C5.11127 19.2774 4.96429 19.6322 4.96429 20.0022C4.96429 20.3722 5.11127 20.7271 5.3729 20.9887C5.63453 21.2503 5.98937 21.3973 6.35938 21.3973ZM10.2656 7.44643C10.0436 7.44643 9.83072 7.53462 9.67374 7.6916C9.51676 7.84857 9.42857 8.06148 9.42857 8.28348C9.42857 8.50548 9.51676 8.71839 9.67374 8.87537C9.83072 9.03235 10.0436 9.12054 10.2656 9.12054H17.5201C17.7421 9.12054 17.955 9.03235 18.112 8.87537C18.269 8.71839 18.3571 8.50548 18.3571 8.28348C18.3571 8.06148 18.269 7.84857 18.112 7.6916C17.955 7.53462 17.7421 7.44643 17.5201 7.44643H10.2656ZM9.42857 14.1429C9.42857 13.9209 9.51676 13.7079 9.67374 13.551C9.83072 13.394 10.0436 13.3058 10.2656 13.3058H17.5201C17.7421 13.3058 17.955 13.394 18.112 13.551C18.269 13.7079 18.3571 13.9209 18.3571 14.1429C18.3571 14.3649 18.269 14.5778 18.112 14.7347C17.955 14.8917 17.7421 14.9799 17.5201 14.9799H10.2656C10.0436 14.9799 9.83072 14.8917 9.67374 14.7347C9.51676 14.5778 9.42857 14.3649 9.42857 14.1429ZM10.2656 19.1652C10.0436 19.1652 9.83072 19.2534 9.67374 19.4103C9.51676 19.5673 9.42857 19.7802 9.42857 20.0022C9.42857 20.2242 9.51676 20.4371 9.67374 20.5941C9.83072 20.7511 10.0436 20.8393 10.2656 20.8393H17.5201C17.7421 20.8393 17.955 20.7511 18.112 20.5941C18.269 20.4371 18.3571 20.2242 18.3571 20.0022C18.3571 19.7802 18.269 19.5673 18.112 19.4103C17.955 19.2534 17.7421 19.1652 17.5201 19.1652H10.2656ZM24.808 20.5938L18.1116 27.2902C17.9547 27.4469 17.7419 27.535 17.5201 27.535C17.2983 27.535 17.0855 27.4469 16.9286 27.2902L13.5826 23.9442C13.4347 23.7855 13.3542 23.5756 13.3581 23.3588C13.3619 23.1419 13.4497 22.935 13.6031 22.7817C13.7565 22.6283 13.9634 22.5405 14.1802 22.5366C14.3971 22.5328 14.6069 22.6133 14.7656 22.7612L17.5201 25.5145L23.625 19.4096C23.7023 19.3297 23.7946 19.266 23.8968 19.2221C23.9989 19.1783 24.1088 19.1553 24.2199 19.1544C24.3311 19.1535 24.4413 19.1747 24.5441 19.2168C24.647 19.259 24.7404 19.3212 24.819 19.3998C24.8975 19.4784 24.9596 19.5719 25.0017 19.6748C25.0437 19.7777 25.0648 19.8879 25.0638 19.9991C25.0628 20.1102 25.0397 20.22 24.9957 20.3221C24.9518 20.4242 24.888 20.5166 24.808 20.5938Z" fill="#F2CA9A"/>
</svg>
