<svg width="25" height="25" viewBox="0 0 25 25" fill="none" xmlns="http://www.w3.org/2000/svg">
<path d="M3.57129 4.68743C3.57129 3.91783 3.87701 3.17975 4.4212 2.63556C4.96539 2.09137 5.70347 1.78564 6.47307 1.78564H18.5266C19.2962 1.78564 20.0343 2.09137 20.5785 2.63556C21.1227 3.17975 21.4284 3.91783 21.4284 4.68743V15.5169C21.3213 15.5883 21.2186 15.6723 21.124 15.7669L20.0891 16.8017V4.68743C20.0891 4.27303 19.9245 3.8756 19.6315 3.58258C19.3385 3.28955 18.941 3.12493 18.5266 3.12493H6.47307C6.05867 3.12493 5.66125 3.28955 5.36822 3.58258C5.0752 3.8756 4.91057 4.27303 4.91057 4.68743V20.3124C4.91057 21.1749 5.61057 21.8749 6.47307 21.8749H13.6766L15.0159 23.2142H6.47307C5.70347 23.2142 4.96539 22.9085 4.4212 22.3643C3.87701 21.8201 3.57129 21.082 3.57129 20.3124V4.68743ZM9.37486 7.81243C9.37486 8.10843 9.25728 8.39231 9.04797 8.60161C8.83867 8.81092 8.55479 8.9285 8.25879 8.9285C7.96279 8.9285 7.67891 8.81092 7.46961 8.60161C7.2603 8.39231 7.14272 8.10843 7.14272 7.81243C7.14272 7.51643 7.2603 7.23255 7.46961 7.02325C7.67891 6.81394 7.96279 6.69636 8.25879 6.69636C8.55479 6.69636 8.83867 6.81394 9.04797 7.02325C9.25728 7.23255 9.37486 7.51643 9.37486 7.81243ZM8.25879 13.616C8.55479 13.616 8.83867 13.4984 9.04797 13.2891C9.25728 13.0798 9.37486 12.7959 9.37486 12.4999C9.37486 12.2039 9.25728 11.9201 9.04797 11.7107C8.83867 11.5014 8.55479 11.3839 8.25879 11.3839C7.96279 11.3839 7.67891 11.5014 7.46961 11.7107C7.2603 11.9201 7.14272 12.2039 7.14272 12.4999C7.14272 12.7959 7.2603 13.0798 7.46961 13.2891C7.67891 13.4984 7.96279 13.616 8.25879 13.616ZM8.25879 18.3035C8.55479 18.3035 8.83867 18.1859 9.04797 17.9766C9.25728 17.7673 9.37486 17.4834 9.37486 17.1874C9.37486 16.8914 9.25728 16.6076 9.04797 16.3982C8.83867 16.1889 8.55479 16.0714 8.25879 16.0714C7.96279 16.0714 7.67891 16.1889 7.46961 16.3982C7.2603 16.6076 7.14272 16.8914 7.14272 17.1874C7.14272 17.4834 7.2603 17.7673 7.46961 17.9766C7.67891 18.1859 7.96279 18.3035 8.25879 18.3035ZM11.3838 7.14279C11.2062 7.14279 11.0359 7.21334 10.9103 7.33892C10.7847 7.4645 10.7141 7.63483 10.7141 7.81243C10.7141 7.99003 10.7847 8.16036 10.9103 8.28594C11.0359 8.41152 11.2062 8.48207 11.3838 8.48207H17.1874C17.365 8.48207 17.5353 8.41152 17.6609 8.28594C17.7865 8.16036 17.857 7.99003 17.857 7.81243C17.857 7.63483 17.7865 7.4645 17.6609 7.33892C17.5353 7.21334 17.365 7.14279 17.1874 7.14279H11.3838ZM10.7141 12.4999C10.7141 12.3223 10.7847 12.152 10.9103 12.0264C11.0359 11.9008 11.2062 11.8303 11.3838 11.8303H17.1874C17.365 11.8303 17.5353 11.9008 17.6609 12.0264C17.7865 12.152 17.857 12.3223 17.857 12.4999C17.857 12.6775 17.7865 12.8479 17.6609 12.9734C17.5353 13.099 17.365 13.1696 17.1874 13.1696H11.3838C11.2062 13.1696 11.0359 13.099 10.9103 12.9734C10.7847 12.8479 10.7141 12.6775 10.7141 12.4999ZM11.3838 16.5178C11.2062 16.5178 11.0359 16.5883 10.9103 16.7139C10.7847 16.8395 10.7141 17.0098 10.7141 17.1874C10.7141 17.365 10.7847 17.5354 10.9103 17.6609C11.0359 17.7865 11.2062 17.8571 11.3838 17.8571H17.1874C17.365 17.8571 17.5353 17.7865 17.6609 17.6609C17.7865 17.5354 17.857 17.365 17.857 17.1874C17.857 17.0098 17.7865 16.8395 17.6609 16.7139C17.5353 16.5883 17.365 16.5178 17.1874 16.5178H11.3838ZM23.0177 17.6606L17.6606 23.0178C17.535 23.1432 17.3648 23.2136 17.1874 23.2136C17.0099 23.2136 16.8397 23.1432 16.7141 23.0178L14.0374 20.341C13.9191 20.2141 13.8547 20.0462 13.8577 19.8727C13.8608 19.6992 13.9311 19.5337 14.0538 19.411C14.1765 19.2883 14.342 19.218 14.5155 19.215C14.6889 19.2119 14.8568 19.2763 14.9838 19.3946L17.1874 21.5972L22.0713 16.7133C22.1331 16.6494 22.207 16.5984 22.2887 16.5634C22.3704 16.5283 22.4583 16.5099 22.5472 16.5091C22.6361 16.5084 22.7243 16.5254 22.8066 16.5591C22.8889 16.5928 22.9636 16.6426 23.0265 16.7055C23.0893 16.7684 23.139 16.8432 23.1726 16.9255C23.2063 17.0078 23.2232 17.096 23.2223 17.1849C23.2215 17.2738 23.203 17.3617 23.1679 17.4434C23.1328 17.525 23.0817 17.5989 23.0177 17.6606Z" fill="#F2CA9A"/>
</svg>
